<svg width="98" height="18" viewBox="0 0 98 18" fill="none" xmlns="http://www.w3.org/2000/svg">
<path d="M7.866 2.81C7.03 2.81 6.27467 2.95667 5.6 3.25C4.92533 3.52867 4.35333 3.94667 3.884 4.504C3.41467 5.04667 3.05533 5.714 2.806 6.506C2.55667 7.28333 2.432 8.16333 2.432 9.146C2.432 10.4367 2.63 11.5587 3.026 12.512C3.43667 13.4653 4.038 14.1987 4.83 14.712C5.63667 15.2253 6.64133 15.482 7.844 15.482C8.53333 15.482 9.186 15.4233 9.802 15.306C10.418 15.1887 11.0193 15.042 11.606 14.866V16.582C11.0193 16.802 10.4107 16.9633 9.78 17.066C9.164 17.1687 8.42333 17.22 7.558 17.22C5.95933 17.22 4.62467 16.89 3.554 16.23C2.48333 15.57 1.67667 14.6313 1.134 13.414C0.606 12.1967 0.342 10.7667 0.342 9.124C0.342 7.936 0.503333 6.85067 0.826 5.868C1.16333 4.88533 1.64733 4.03467 2.278 3.316C2.92333 2.59733 3.71533 2.04733 4.654 1.666C5.59267 1.27 6.67067 1.072 7.888 1.072C8.69467 1.072 9.472 1.15267 10.22 1.314C10.968 1.47533 11.6353 1.70267 12.222 1.996L11.43 3.668C10.946 3.448 10.4033 3.25 9.802 3.074C9.21533 2.898 8.57 2.81 7.866 2.81ZM25.0224 11.082C25.0224 12.0647 24.8904 12.9373 24.6264 13.7C24.3771 14.448 24.0104 15.086 23.5264 15.614C23.0571 16.142 22.4777 16.5453 21.7884 16.824C21.1137 17.088 20.3584 17.22 19.5224 17.22C18.7451 17.22 18.0264 17.088 17.3664 16.824C16.7064 16.5453 16.1344 16.142 15.6504 15.614C15.1664 15.086 14.7851 14.448 14.5064 13.7C14.2424 12.9373 14.1104 12.0647 14.1104 11.082C14.1104 9.77667 14.3304 8.67667 14.7704 7.782C15.2104 6.87267 15.8411 6.18333 16.6624 5.714C17.4837 5.23 18.4591 4.988 19.5884 4.988C20.6591 4.988 21.5977 5.23 22.4044 5.714C23.2257 6.18333 23.8637 6.87267 24.3184 7.782C24.7877 8.67667 25.0224 9.77667 25.0224 11.082ZM16.1124 11.082C16.1124 12.006 16.2297 12.8127 16.4644 13.502C16.7137 14.1767 17.0951 14.6973 17.6084 15.064C18.1217 15.4307 18.7744 15.614 19.5664 15.614C20.3584 15.614 21.0111 15.4307 21.5244 15.064C22.0377 14.6973 22.4117 14.1767 22.6464 13.502C22.8957 12.8127 23.0204 12.006 23.0204 11.082C23.0204 10.1433 22.8957 9.344 22.6464 8.684C22.3971 8.024 22.0157 7.518 21.5024 7.166C21.0037 6.79933 20.3511 6.616 19.5444 6.616C18.3417 6.616 17.4691 7.012 16.9264 7.804C16.3837 8.596 16.1124 9.68867 16.1124 11.082ZM32.2707 17.22C30.804 17.22 29.6307 16.714 28.7507 15.702C27.8707 14.6753 27.4307 13.15 27.4307 11.126C27.4307 9.102 27.8707 7.57667 28.7507 6.55C29.6454 5.50867 30.826 4.988 32.2927 4.988C32.9087 4.988 33.444 5.06867 33.8987 5.23C34.3534 5.37667 34.7494 5.582 35.0867 5.846C35.424 6.11 35.71 6.40333 35.9447 6.726H36.0767C36.062 6.53533 36.0327 6.25667 35.9887 5.89C35.9594 5.50867 35.9447 5.208 35.9447 4.988V0.279999H37.8807V17H36.3187L36.0327 15.416H35.9447C35.71 15.7533 35.424 16.0613 35.0867 16.34C34.7494 16.604 34.346 16.8167 33.8767 16.978C33.422 17.1393 32.8867 17.22 32.2707 17.22ZM32.5787 15.614C33.8254 15.614 34.698 15.2767 35.1967 14.602C35.71 13.9127 35.9667 12.8787 35.9667 11.5V11.148C35.9667 9.68133 35.7247 8.55933 35.2407 7.782C34.7567 6.99 33.862 6.594 32.5567 6.594C31.5154 6.594 30.7307 7.012 30.2027 7.848C29.6894 8.66933 29.4327 9.77667 29.4327 11.17C29.4327 12.578 29.6894 13.6707 30.2027 14.448C30.7307 15.2253 31.5227 15.614 32.5787 15.614ZM46.1799 4.988C47.1919 4.988 48.0572 5.208 48.7759 5.648C49.5092 6.088 50.0665 6.71133 50.4479 7.518C50.8439 8.31 51.0419 9.24133 51.0419 10.312V11.478H42.9679C42.9972 12.8127 43.3345 13.832 43.9799 14.536C44.6399 15.2253 45.5565 15.57 46.7299 15.57C47.4779 15.57 48.1379 15.504 48.7099 15.372C49.2965 15.2253 49.8979 15.02 50.5139 14.756V16.45C49.9125 16.714 49.3185 16.9047 48.7319 17.022C48.1452 17.154 47.4485 17.22 46.6419 17.22C45.5272 17.22 44.5372 16.9927 43.6719 16.538C42.8212 16.0833 42.1539 15.4087 41.6699 14.514C41.2005 13.6047 40.9659 12.4973 40.9659 11.192C40.9659 9.90133 41.1785 8.794 41.6039 7.87C42.0439 6.946 42.6525 6.23467 43.4299 5.736C44.2219 5.23733 45.1385 4.988 46.1799 4.988ZM46.1579 6.572C45.2339 6.572 44.5005 6.87267 43.9579 7.474C43.4299 8.06067 43.1145 8.882 43.0119 9.938H49.0179C49.0179 9.26333 48.9152 8.67667 48.7099 8.178C48.5045 7.67933 48.1892 7.29067 47.7639 7.012C47.3532 6.71867 46.8179 6.572 46.1579 6.572ZM66.3198 17H64.3398V9.674H56.2878V17H54.3078V1.292H56.2878V7.936H64.3398V1.292H66.3198V17ZM82.5605 11.456C82.5605 12.5413 82.3405 13.524 81.9005 14.404C81.4605 15.2693 80.7858 15.9587 79.8765 16.472C78.9818 16.9707 77.8378 17.22 76.4445 17.22C74.4938 17.22 73.0051 16.692 71.9785 15.636C70.9665 14.5653 70.4605 13.1573 70.4605 11.412V1.292H72.4405V11.478C72.4405 12.754 72.7778 13.744 73.4525 14.448C74.1418 15.152 75.1758 15.504 76.5545 15.504C77.5078 15.504 78.2778 15.3353 78.8645 14.998C79.4658 14.646 79.9058 14.1693 80.1845 13.568C80.4631 12.952 80.6025 12.248 80.6025 11.456V1.292H82.5605V11.456ZM91.1943 1.292C92.4996 1.292 93.5923 1.41667 94.4723 1.666C95.3669 1.91533 96.0343 2.326 96.4743 2.898C96.9289 3.47 97.1563 4.23267 97.1563 5.186C97.1563 5.802 97.0389 6.352 96.8043 6.836C96.5843 7.30533 96.2469 7.70133 95.7923 8.024C95.3523 8.332 94.8096 8.54467 94.1643 8.662V8.772C94.8243 8.87467 95.4183 9.06533 95.9463 9.344C96.4889 9.62267 96.9143 10.0187 97.2223 10.532C97.5303 11.0453 97.6843 11.7127 97.6843 12.534C97.6843 13.4873 97.4643 14.3013 97.0243 14.976C96.5843 15.636 95.9536 16.142 95.1323 16.494C94.3256 16.8313 93.3576 17 92.2283 17H86.7063V1.292H91.1943ZM91.5903 7.98C92.9396 7.98 93.8636 7.76733 94.3623 7.342C94.8609 6.902 95.1103 6.25667 95.1103 5.406C95.1103 4.54067 94.8023 3.92467 94.1863 3.558C93.5849 3.17667 92.6169 2.986 91.2823 2.986H88.6863V7.98H91.5903ZM88.6863 9.63V15.328H91.8543C93.2476 15.328 94.2156 15.0567 94.7583 14.514C95.3009 13.9713 95.5723 13.26 95.5723 12.38C95.5723 11.8227 95.4476 11.3387 95.1983 10.928C94.9636 10.5173 94.5603 10.202 93.9883 9.982C93.4309 9.74733 92.6683 9.63 91.7003 9.63H88.6863Z" fill="#01ABF3"/>
</svg>
