<svg width="102" height="18" viewBox="0 0 102 18" fill="none" xmlns="http://www.w3.org/2000/svg">
<path d="M0.134 17V1.292H2.114V15.24H8.978V17H0.134ZM21.2631 5.208V17H19.6791L19.3931 15.438H19.3051C19.0558 15.8487 18.7331 16.186 18.3371 16.45C17.9411 16.714 17.5084 16.9047 17.0391 17.022C16.5698 17.154 16.0784 17.22 15.5651 17.22C14.6264 17.22 13.8344 17.0733 13.1891 16.78C12.5584 16.472 12.0818 16.0027 11.7591 15.372C11.4364 14.7413 11.2751 13.9273 11.2751 12.93V5.208H13.2331V12.798C13.2331 13.7367 13.4458 14.4407 13.8711 14.91C14.2964 15.3793 14.9564 15.614 15.8511 15.614C16.7311 15.614 17.4204 15.4527 17.9191 15.13C18.4324 14.7927 18.7918 14.3087 18.9971 13.678C19.2171 13.0327 19.3271 12.2553 19.3271 11.346V5.208H21.2631ZM37.9427 4.988C39.2774 4.988 40.2747 5.33267 40.9347 6.022C41.5947 6.69667 41.9247 7.79667 41.9247 9.322V17H40.0107V9.41C40.0107 8.486 39.8127 7.78933 39.4167 7.32C39.0354 6.85067 38.4341 6.616 37.6127 6.616C36.4687 6.616 35.6474 6.946 35.1487 7.606C34.6647 8.266 34.4227 9.22667 34.4227 10.488V17H32.5087V9.41C32.5087 8.794 32.4207 8.28067 32.2447 7.87C32.0687 7.44467 31.8047 7.12933 31.4527 6.924C31.1007 6.71867 30.6461 6.616 30.0887 6.616C29.2967 6.616 28.6734 6.78467 28.2187 7.122C27.7641 7.44467 27.4341 7.92133 27.2287 8.552C27.0381 9.18267 26.9427 9.96 26.9427 10.884V17H25.0067V5.208H26.5687L26.8547 6.814H26.9647C27.2141 6.40333 27.5147 6.066 27.8667 5.802C28.2334 5.52333 28.6367 5.318 29.0767 5.186C29.5167 5.054 29.9714 4.988 30.4407 4.988C31.3501 4.988 32.1054 5.14933 32.7067 5.472C33.3227 5.79467 33.7701 6.29333 34.0487 6.968H34.1587C34.5547 6.29333 35.0901 5.79467 35.7647 5.472C36.4541 5.14933 37.1801 4.988 37.9427 4.988ZM47.5033 5.208V17H45.5673V5.208H47.5033ZM46.5573 0.785999C46.8506 0.785999 47.1073 0.888666 47.3273 1.094C47.5619 1.28467 47.6793 1.59267 47.6793 2.018C47.6793 2.42867 47.5619 2.73667 47.3273 2.942C47.1073 3.14733 46.8506 3.25 46.5573 3.25C46.2346 3.25 45.9633 3.14733 45.7433 2.942C45.5233 2.73667 45.4133 2.42867 45.4133 2.018C45.4133 1.59267 45.5233 1.28467 45.7433 1.094C45.9633 0.888666 46.2346 0.785999 46.5573 0.785999ZM58.2351 2.81C57.3991 2.81 56.6438 2.95667 55.9691 3.25C55.2945 3.52867 54.7225 3.94667 54.2531 4.504C53.7838 5.04667 53.4245 5.714 53.1751 6.506C52.9258 7.28333 52.8011 8.16333 52.8011 9.146C52.8011 10.4367 52.9991 11.5587 53.3951 12.512C53.8058 13.4653 54.4071 14.1987 55.1991 14.712C56.0058 15.2253 57.0105 15.482 58.2131 15.482C58.9025 15.482 59.5551 15.4233 60.1711 15.306C60.7871 15.1887 61.3885 15.042 61.9751 14.866V16.582C61.3885 16.802 60.7798 16.9633 60.1491 17.066C59.5331 17.1687 58.7925 17.22 57.9271 17.22C56.3285 17.22 54.9938 16.89 53.9231 16.23C52.8525 15.57 52.0458 14.6313 51.5031 13.414C50.9751 12.1967 50.7111 10.7667 50.7111 9.124C50.7111 7.936 50.8725 6.85067 51.1951 5.868C51.5325 4.88533 52.0165 4.03467 52.6471 3.316C53.2925 2.59733 54.0845 2.04733 55.0231 1.666C55.9618 1.27 57.0398 1.072 58.2571 1.072C59.0638 1.072 59.8411 1.15267 60.5891 1.314C61.3371 1.47533 62.0045 1.70267 62.5911 1.996L61.7991 3.668C61.3151 3.448 60.7725 3.25 60.1711 3.074C59.5845 2.898 58.9391 2.81 58.2351 2.81ZM75.3915 11.082C75.3915 12.0647 75.2595 12.9373 74.9955 13.7C74.7462 14.448 74.3795 15.086 73.8955 15.614C73.4262 16.142 72.8469 16.5453 72.1575 16.824C71.4829 17.088 70.7275 17.22 69.8915 17.22C69.1142 17.22 68.3955 17.088 67.7355 16.824C67.0755 16.5453 66.5035 16.142 66.0195 15.614C65.5355 15.086 65.1542 14.448 64.8755 13.7C64.6115 12.9373 64.4795 12.0647 64.4795 11.082C64.4795 9.77667 64.6995 8.67667 65.1395 7.782C65.5795 6.87267 66.2102 6.18333 67.0315 5.714C67.8529 5.23 68.8282 4.988 69.9575 4.988C71.0282 4.988 71.9669 5.23 72.7735 5.714C73.5949 6.18333 74.2329 6.87267 74.6875 7.782C75.1569 8.67667 75.3915 9.77667 75.3915 11.082ZM66.4815 11.082C66.4815 12.006 66.5989 12.8127 66.8335 13.502C67.0829 14.1767 67.4642 14.6973 67.9775 15.064C68.4909 15.4307 69.1435 15.614 69.9355 15.614C70.7275 15.614 71.3802 15.4307 71.8935 15.064C72.4069 14.6973 72.7809 14.1767 73.0155 13.502C73.2649 12.8127 73.3895 12.006 73.3895 11.082C73.3895 10.1433 73.2649 9.344 73.0155 8.684C72.7662 8.024 72.3849 7.518 71.8715 7.166C71.3729 6.79933 70.7202 6.616 69.9135 6.616C68.7109 6.616 67.8382 7.012 67.2955 7.804C66.7529 8.596 66.4815 9.68867 66.4815 11.082ZM82.6398 17.22C81.1732 17.22 79.9998 16.714 79.1198 15.702C78.2398 14.6753 77.7998 13.15 77.7998 11.126C77.7998 9.102 78.2398 7.57667 79.1198 6.55C80.0145 5.50867 81.1952 4.988 82.6618 4.988C83.2778 4.988 83.8132 5.06867 84.2678 5.23C84.7225 5.37667 85.1185 5.582 85.4558 5.846C85.7932 6.11 86.0792 6.40333 86.3138 6.726H86.4458C86.4312 6.53533 86.4018 6.25667 86.3578 5.89C86.3285 5.50867 86.3138 5.208 86.3138 4.988V0.279999H88.2498V17H86.6878L86.4018 15.416H86.3138C86.0792 15.7533 85.7932 16.0613 85.4558 16.34C85.1185 16.604 84.7152 16.8167 84.2458 16.978C83.7912 17.1393 83.2558 17.22 82.6398 17.22ZM82.9478 15.614C84.1945 15.614 85.0672 15.2767 85.5658 14.602C86.0792 13.9127 86.3358 12.8787 86.3358 11.5V11.148C86.3358 9.68133 86.0938 8.55933 85.6098 7.782C85.1258 6.99 84.2312 6.594 82.9258 6.594C81.8845 6.594 81.0998 7.012 80.5718 7.848C80.0585 8.66933 79.8018 9.77667 79.8018 11.17C79.8018 12.578 80.0585 13.6707 80.5718 14.448C81.0998 15.2253 81.8918 15.614 82.9478 15.614ZM96.549 4.988C97.561 4.988 98.4263 5.208 99.145 5.648C99.8783 6.088 100.436 6.71133 100.817 7.518C101.213 8.31 101.411 9.24133 101.411 10.312V11.478H93.337C93.3663 12.8127 93.7037 13.832 94.349 14.536C95.009 15.2253 95.9257 15.57 97.099 15.57C97.847 15.57 98.507 15.504 99.079 15.372C99.6657 15.2253 100.267 15.02 100.883 14.756V16.45C100.282 16.714 99.6877 16.9047 99.101 17.022C98.5143 17.154 97.8177 17.22 97.011 17.22C95.8963 17.22 94.9063 16.9927 94.041 16.538C93.1903 16.0833 92.523 15.4087 92.039 14.514C91.5697 13.6047 91.335 12.4973 91.335 11.192C91.335 9.90133 91.5477 8.794 91.973 7.87C92.413 6.946 93.0217 6.23467 93.799 5.736C94.591 5.23733 95.5077 4.988 96.549 4.988ZM96.527 6.572C95.603 6.572 94.8697 6.87267 94.327 7.474C93.799 8.06067 93.4837 8.882 93.381 9.938H99.387C99.387 9.26333 99.2843 8.67667 99.079 8.178C98.8737 7.67933 98.5583 7.29067 98.133 7.012C97.7223 6.71867 97.187 6.572 96.527 6.572Z" fill="#01ABF3"/>
</svg>
