<svg width="100" height="100" viewBox="0 0 100 100" fill="none" xmlns="http://www.w3.org/2000/svg">
<path d="M10 1.5H70C85.7401 1.5 98.5 14.2599 98.5 30V90C98.5 94.6944 94.6944 98.5 90 98.5H10C5.30558 98.5 1.5 94.6944 1.5 90V10C1.5 5.30558 5.30558 1.5 10 1.5Z" stroke="white" stroke-width="3"/>
<mask id="path-2-inside-1_248_6" fill="white">
<path d="M25 0H67V19C67 24.5228 62.5228 29 57 29H35C29.4772 29 25 24.5228 25 19V0Z"/>
</mask>
<path d="M25 0H67H25ZM70 19C70 26.1797 64.1797 32 57 32H35C27.8203 32 22 26.1797 22 19H28C28 22.866 31.134 26 35 26H57C60.866 26 64 22.866 64 19H70ZM35 32C27.8203 32 22 26.1797 22 19V0H28V19C28 22.866 31.134 26 35 26V32ZM70 0V19C70 26.1797 64.1797 32 57 32V26C60.866 26 64 22.866 64 19V0H70Z" fill="white" mask="url(#path-2-inside-1_248_6)"/>
<mask id="path-4-inside-2_248_6" fill="white">
<path d="M88 100H13V74C13 68.4772 17.4772 64 23 64H78C83.5228 64 88 68.4772 88 74V100Z"/>
</mask>
<path d="M88 100H13H88ZM10 74C10 66.8203 15.8203 61 23 61L78 61C85.1797 61 91 66.8203 91 74H85C85 70.134 81.866 67 78 67H23C19.134 67 16 70.134 16 74H10ZM78 61C85.1797 61 91 66.8203 91 74V100H85V74C85 70.134 81.866 67 78 67V61ZM10 100V74C10 66.8203 15.8203 61 23 61V67C19.134 67 16 70.134 16 74V100H10Z" fill="white" mask="url(#path-4-inside-2_248_6)"/>
</svg>
